<?xml version="1.0" encoding="utf-8"?>
<!-- Generator: Adobe Illustrator 16.0.0, SVG Export Plug-In . SVG Version: 6.00 Build 0)  -->
<!DOCTYPE svg PUBLIC "-//W3C//DTD SVG 1.1//EN" "http://www.w3.org/Graphics/SVG/1.1/DTD/svg11.dtd">
<svg version="1.1" id="Layer_1" xmlns="http://www.w3.org/2000/svg" xmlns:xlink="http://www.w3.org/1999/xlink" x="0px" y="0px"
	 width="526px" height="400px" viewBox="0 0 526 400" enable-background="new 0 0 526 400" xml:space="preserve">
<path fill="#ABCDEC" d="M102.15,97.22c-2.45,0-2.68,2.16-2.68,5.48c0,3.34,0.23,5.48,2.68,5.48c2.46,0,2.74-2.14,2.74-5.48
	C104.89,99.38,104.61,97.22,102.15,97.22z M102.15,97.22c-2.45,0-2.68,2.16-2.68,5.48c0,3.34,0.23,5.48,2.68,5.48
	c2.46,0,2.74-2.14,2.74-5.48C104.89,99.38,104.61,97.22,102.15,97.22z M102.15,97.22c-2.45,0-2.68,2.16-2.68,5.48
	c0,3.34,0.23,5.48,2.68,5.48c2.46,0,2.74-2.14,2.74-5.48C104.89,99.38,104.61,97.22,102.15,97.22z M102.15,97.22
	c-2.45,0-2.68,2.16-2.68,5.48c0,3.34,0.23,5.48,2.68,5.48c2.46,0,2.74-2.14,2.74-5.48C104.89,99.38,104.61,97.22,102.15,97.22z
	 M102.15,97.22c-2.45,0-2.68,2.16-2.68,5.48c0,3.34,0.23,5.48,2.68,5.48c2.46,0,2.74-2.14,2.74-5.48
	C104.89,99.38,104.61,97.22,102.15,97.22z M102.15,97.22c-2.45,0-2.68,2.16-2.68,5.48c0,3.34,0.23,5.48,2.68,5.48
	c2.46,0,2.74-2.14,2.74-5.48C104.89,99.38,104.61,97.22,102.15,97.22z M102.15,97.22c-2.45,0-2.68,2.16-2.68,5.48
	c0,3.34,0.23,5.48,2.68,5.48c2.46,0,2.74-2.14,2.74-5.48C104.89,99.38,104.61,97.22,102.15,97.22z M161.62,97.22
	c-2.44,0-2.68,2.16-2.68,5.48c0,3.34,0.24,5.48,2.68,5.48c2.46,0,2.74-2.14,2.74-5.48C164.36,99.38,164.08,97.22,161.62,97.22z
	 M161.62,97.22c-2.44,0-2.68,2.16-2.68,5.48c0,3.34,0.24,5.48,2.68,5.48c2.46,0,2.74-2.14,2.74-5.48
	C164.36,99.38,164.08,97.22,161.62,97.22z M102.15,97.22c-2.45,0-2.68,2.16-2.68,5.48c0,3.34,0.23,5.48,2.68,5.48
	c2.46,0,2.74-2.14,2.74-5.48C104.89,99.38,104.61,97.22,102.15,97.22z M102.15,97.22c-2.45,0-2.68,2.16-2.68,5.48
	c0,3.34,0.23,5.48,2.68,5.48c2.46,0,2.74-2.14,2.74-5.48C104.89,99.38,104.61,97.22,102.15,97.22z M161.62,97.22
	c-2.44,0-2.68,2.16-2.68,5.48c0,3.34,0.24,5.48,2.68,5.48c2.46,0,2.74-2.14,2.74-5.48C164.36,99.38,164.08,97.22,161.62,97.22z
	 M161.62,97.22c-2.44,0-2.68,2.16-2.68,5.48c0,3.34,0.24,5.48,2.68,5.48c2.46,0,2.74-2.14,2.74-5.48
	C164.36,99.38,164.08,97.22,161.62,97.22z M102.15,97.22c-2.45,0-2.68,2.16-2.68,5.48c0,3.34,0.23,5.48,2.68,5.48
	c2.46,0,2.74-2.14,2.74-5.48C104.89,99.38,104.61,97.22,102.15,97.22z M102.15,97.22c-2.45,0-2.68,2.16-2.68,5.48
	c0,3.34,0.23,5.48,2.68,5.48c2.46,0,2.74-2.14,2.74-5.48C104.89,99.38,104.61,97.22,102.15,97.22z M161.62,97.22
	c-2.44,0-2.68,2.16-2.68,5.48c0,3.34,0.24,5.48,2.68,5.48c2.46,0,2.74-2.14,2.74-5.48C164.36,99.38,164.08,97.22,161.62,97.22z
	 M220.86,97.32h-1.31v5.98h1.31c2.4-0.09,2.74-1.31,2.74-2.98C223.6,98.67,223.26,97.32,220.86,97.32z M220.86,97.32h-1.31v5.98
	h1.31c2.4-0.09,2.74-1.31,2.74-2.98C223.6,98.67,223.26,97.32,220.86,97.32z M161.62,97.22c-2.44,0-2.68,2.16-2.68,5.48
	c0,3.34,0.24,5.48,2.68,5.48c2.46,0,2.74-2.14,2.74-5.48C164.36,99.38,164.08,97.22,161.62,97.22z M102.15,97.22
	c-2.45,0-2.68,2.16-2.68,5.48c0,3.34,0.23,5.48,2.68,5.48c2.46,0,2.74-2.14,2.74-5.48C104.89,99.38,104.61,97.22,102.15,97.22z
	 M243.77,76.95H45.89c-6.62,0-12,5.37-12,12v28.68c0,6.62,5.38,12,12,12h197.88c6.63,0,12-5.38,12-12V88.95
	C255.77,82.32,250.4,76.95,243.77,76.95z M53.68,110.2h-2.16v-15h2.16V110.2z M64.16,97.32h-2.98v12.88h-2.17V97.32h-2.97V95.2h8.12
	V97.32z M66.72,99.38v-1.56c0.52-0.2,1.1-0.6,0.92-0.75c-0.47-0.33-0.75-0.8-0.75-1.38c0-0.9,0.65-1.58,1.48-1.58
	c0.67,0,1.2,0.41,1.42,1.03C70.17,96.23,69.23,98.52,66.72,99.38z M76.32,110.31c-4.78,0-4.86-3.71-4.86-4.33v-0.97h2.14v0.97
	c0,1.18,0.71,2.2,2.72,2.2c1.91,0,2.16-1.24,2.16-1.84c0-1.37-1.33-1.9-2.74-2.44c-1.97-0.77-4.09-1.59-4.09-4.65
	c0-1.16,0.66-4.16,4.48-4.16c3.68,0,4.3,3.11,4.3,4.25v0.96h-2.16v-0.96c0-1.18-0.69-2.12-2.14-2.12c-1.4,0-2.32,0.81-2.32,2.03
	c0,1.46,1.37,2.01,2.81,2.55c1.97,0.73,4.03,1.54,4.03,4.54C80.65,108.23,79.66,110.31,76.32,110.31z M95.32,110.2h-6.9v-15h2.14
	v12.79h4.76V110.2z M102.15,110.31c-4.33,0-4.84-3.43-4.84-7.61c0-4.18,0.51-7.61,4.84-7.61c4.32,0,4.9,3.43,4.9,7.61
	C107.05,106.88,106.47,110.31,102.15,110.31z M119.45,110.2h-1.99l-5.03-9.86v9.86h-2.17v-15h2.04l5.01,9.88V95.2h2.14V110.2z
	 M129.86,110.2h-7.2v-15h7.05v2.12h-4.88v4.65h4.07v2.12h-4.07v3.99h5.03V110.2z M139.54,110.2h-6.9v-15h2.14v12.79h4.76V110.2z
	 M145.79,105.23v4.97h-2.16v-4.97l-3.99-10.03h2.25l2.83,7.05c0.62-1.61,1.24-3.17,2.83-7.05h2.21L145.79,105.23z M161.62,110.31
	c-4.33,0-4.84-3.43-4.84-7.61c0-4.18,0.51-7.61,4.84-7.61s4.91,3.43,4.91,7.61C166.53,106.88,165.95,110.31,161.62,110.31z
	 M178.5,105.83c0,3.17-1.78,4.48-4.52,4.48c-2.75,0-4.46-1.31-4.46-4.48V95.2h2.16v10.63c0,1.58,0.65,2.35,2.3,2.35
	c1.67,0,2.35-0.77,2.35-2.35V95.2h2.17V105.83z M188.86,97.32h-2.98v12.88h-2.16V97.32h-2.98V95.2h8.12V97.32z M204.62,110.2h-2.16
	v-5.64h-3.98v5.64h-2.17v-15h2.17v7.24h3.98V95.2h2.16V110.2z M214.82,110.2h-7.2v-15h7.05v2.12h-4.89v4.65h4.07v2.12h-4.07v3.99
	h5.04V110.2z M223.73,110.2l-2.59-4.76h-1.59v4.76h-2.16v-15h3.47c4.24,0,4.9,2.87,4.9,5.12c0,1.69-0.38,3.73-2.44,4.65l2.83,5.23
	H223.73z M235.91,110.2h-7.19v-15h7.04v2.12h-4.88v4.65h4.07v2.12h-4.07v3.99h5.03V110.2z M220.86,97.32h-1.31v5.98h1.31
	c2.4-0.09,2.74-1.31,2.74-2.98C223.6,98.67,223.26,97.32,220.86,97.32z M161.62,97.22c-2.44,0-2.68,2.16-2.68,5.48
	c0,3.34,0.24,5.48,2.68,5.48c2.46,0,2.74-2.14,2.74-5.48C164.36,99.38,164.08,97.22,161.62,97.22z M102.15,97.22
	c-2.45,0-2.68,2.16-2.68,5.48c0,3.34,0.23,5.48,2.68,5.48c2.46,0,2.74-2.14,2.74-5.48C104.89,99.38,104.61,97.22,102.15,97.22z
	 M102.15,97.22c-2.45,0-2.68,2.16-2.68,5.48c0,3.34,0.23,5.48,2.68,5.48c2.46,0,2.74-2.14,2.74-5.48
	C104.89,99.38,104.61,97.22,102.15,97.22z M161.62,97.22c-2.44,0-2.68,2.16-2.68,5.48c0,3.34,0.24,5.48,2.68,5.48
	c2.46,0,2.74-2.14,2.74-5.48C164.36,99.38,164.08,97.22,161.62,97.22z M161.62,97.22c-2.44,0-2.68,2.16-2.68,5.48
	c0,3.34,0.24,5.48,2.68,5.48c2.46,0,2.74-2.14,2.74-5.48C164.36,99.38,164.08,97.22,161.62,97.22z M102.15,97.22
	c-2.45,0-2.68,2.16-2.68,5.48c0,3.34,0.23,5.48,2.68,5.48c2.46,0,2.74-2.14,2.74-5.48C104.89,99.38,104.61,97.22,102.15,97.22z
	 M102.15,97.22c-2.45,0-2.68,2.16-2.68,5.48c0,3.34,0.23,5.48,2.68,5.48c2.46,0,2.74-2.14,2.74-5.48
	C104.89,99.38,104.61,97.22,102.15,97.22z M161.62,97.22c-2.44,0-2.68,2.16-2.68,5.48c0,3.34,0.24,5.48,2.68,5.48
	c2.46,0,2.74-2.14,2.74-5.48C164.36,99.38,164.08,97.22,161.62,97.22z M161.62,97.22c-2.44,0-2.68,2.16-2.68,5.48
	c0,3.34,0.24,5.48,2.68,5.48c2.46,0,2.74-2.14,2.74-5.48C164.36,99.38,164.08,97.22,161.62,97.22z M102.15,97.22
	c-2.45,0-2.68,2.16-2.68,5.48c0,3.34,0.23,5.48,2.68,5.48c2.46,0,2.74-2.14,2.74-5.48C104.89,99.38,104.61,97.22,102.15,97.22z
	 M102.15,97.22c-2.45,0-2.68,2.16-2.68,5.48c0,3.34,0.23,5.48,2.68,5.48c2.46,0,2.74-2.14,2.74-5.48
	C104.89,99.38,104.61,97.22,102.15,97.22z M161.62,97.22c-2.44,0-2.68,2.16-2.68,5.48c0,3.34,0.24,5.48,2.68,5.48
	c2.46,0,2.74-2.14,2.74-5.48C164.36,99.38,164.08,97.22,161.62,97.22z M161.62,97.22c-2.44,0-2.68,2.16-2.68,5.48
	c0,3.34,0.24,5.48,2.68,5.48c2.46,0,2.74-2.14,2.74-5.48C164.36,99.38,164.08,97.22,161.62,97.22z M102.15,97.22
	c-2.45,0-2.68,2.16-2.68,5.48c0,3.34,0.23,5.48,2.68,5.48c2.46,0,2.74-2.14,2.74-5.48C104.89,99.38,104.61,97.22,102.15,97.22z
	 M102.15,97.22c-2.45,0-2.68,2.16-2.68,5.48c0,3.34,0.23,5.48,2.68,5.48c2.46,0,2.74-2.14,2.74-5.48
	C104.89,99.38,104.61,97.22,102.15,97.22z M102.15,97.22c-2.45,0-2.68,2.16-2.68,5.48c0,3.34,0.23,5.48,2.68,5.48
	c2.46,0,2.74-2.14,2.74-5.48C104.89,99.38,104.61,97.22,102.15,97.22z M102.15,97.22c-2.45,0-2.68,2.16-2.68,5.48
	c0,3.34,0.23,5.48,2.68,5.48c2.46,0,2.74-2.14,2.74-5.48C104.89,99.38,104.61,97.22,102.15,97.22z M102.15,97.22
	c-2.45,0-2.68,2.16-2.68,5.48c0,3.34,0.23,5.48,2.68,5.48c2.46,0,2.74-2.14,2.74-5.48C104.89,99.38,104.61,97.22,102.15,97.22z"/>
<rect opacity="0.1" fill="none" stroke="#FFFFFF" stroke-miterlimit="10" width="526" height="400"/>
<g>
	<g>
		<path fill="none" stroke="#ABCDEC" stroke-width="3" stroke-linecap="square" stroke-miterlimit="10" d="M255.77,103.29
			c1.736,0,3.401,0,4.998,0.006"/>
		
			<path fill="none" stroke="#ABCDEC" stroke-width="3" stroke-linecap="square" stroke-miterlimit="10" stroke-dasharray="10.2236,10.2236" d="
			M270.984,103.534c25.823,1.454,26.963,11.562,27.014,81.842"/>
		<path fill="none" stroke="#ABCDEC" stroke-width="3" stroke-linecap="square" stroke-miterlimit="10" d="M298,190.498
			c0,1.636,0,3.304,0,5.002"/>
	</g>
</g>
<path fill="#669BD2" d="M290.59,241.7c0,14.35-1.56,23.09-12.72,23.399l-10.14,0.08V218.3h10.14
	C289.03,218.3,290.59,227.35,290.59,241.7z"/>
<path fill="#669BD2" d="M256.77,195.5v90.73h90.73V195.5H256.77z M277.87,269h-14.82v-54.6h14.82c15.14,0,17.399,12.17,17.399,27.3
	S293.01,269,277.87,269z M323.74,269.39c-15.29,0-17.16-12.479-17.16-27.689s1.87-27.69,17.16-27.69s17.39,12.48,17.39,27.69
	S339.03,269.39,323.74,269.39z M323.74,217.91c-11.391,0-12.48,9.359-12.48,23.79c0,14.43,1.09,23.79,12.48,23.79
	c11.38,0,12.71-9.36,12.71-23.79C336.45,227.27,335.12,217.91,323.74,217.91z"/>
<g>
	<path fill="#669BD2" d="M178.5,214.4v7.72h10.84V269h7.88v-46.88h10.84v-7.72H178.5z"/>
	<path fill="#669BD2" d="M231.93,214.01c-15.76,0-17.63,12.48-17.63,27.69s1.87,27.689,17.63,27.689
		c15.76,0,17.86-12.479,17.86-27.689S247.69,214.01,231.93,214.01z M231.93,261.67c-8.89,0-9.75-7.8-9.75-19.97
		c0-12.09,0.86-19.97,9.75-19.97c8.97,0,9.99,7.88,9.99,19.97C241.92,253.87,240.9,261.67,231.93,261.67z"/>
</g>
<circle fill="#669BD2" cx="364.865" cy="279.865" r="6.365"/>
</svg>
