<?xml version="1.0" encoding="utf-8"?>
<!-- Generator: Adobe Illustrator 16.0.0, SVG Export Plug-In . SVG Version: 6.00 Build 0)  -->
<!DOCTYPE svg PUBLIC "-//W3C//DTD SVG 1.1//EN" "http://www.w3.org/Graphics/SVG/1.1/DTD/svg11.dtd">
<svg version="1.1" id="Layer_1" xmlns="http://www.w3.org/2000/svg" xmlns:xlink="http://www.w3.org/1999/xlink" x="0px" y="0px"
	 width="40px" height="84px" viewBox="0 0 40 84" enable-background="new 0 0 40 84" xml:space="preserve">
<rect fill="#FFFFFF" width="40" height="84"/>
<path opacity="0.4" fill="#010101" d="M26.951,21.917c0.039-0.299,0.066-0.599,0.066-0.917s-0.027-0.618-0.066-0.917l1.977-1.543
	c0.176-0.14,0.223-0.393,0.111-0.599l-1.871-3.237c-0.111-0.206-0.365-0.28-0.57-0.206l-2.33,0.935
	c-0.484-0.374-1.01-0.683-1.58-0.917l-0.355-2.479c-0.027-0.224-0.225-0.393-0.459-0.393h-3.741c-0.234,0-0.43,0.168-0.458,0.393
	l-0.355,2.479c-0.57,0.234-1.094,0.552-1.581,0.917l-2.329-0.935c-0.215-0.084-0.458,0-0.571,0.206l-1.871,3.237
	c-0.122,0.206-0.065,0.458,0.112,0.599l1.974,1.543c-0.038,0.299-0.065,0.608-0.065,0.917s0.028,0.618,0.065,0.917l-1.974,1.543
	c-0.178,0.14-0.224,0.393-0.112,0.598l1.871,3.238c0.112,0.205,0.365,0.279,0.571,0.205l2.329-0.935
	c0.486,0.374,1.01,0.682,1.581,0.916l0.355,2.479c0.028,0.225,0.225,0.393,0.458,0.393h3.741c0.234,0,0.432-0.168,0.459-0.393
	l0.355-2.479c0.57-0.234,1.096-0.552,1.58-0.916l2.33,0.935c0.213,0.084,0.459,0,0.57-0.205l1.871-3.238
	c0.111-0.205,0.064-0.458-0.111-0.598L26.951,21.917z M20.003,24.274c-1.806,0-3.274-1.469-3.274-3.274
	c0-1.806,1.468-3.274,3.274-3.274c1.804,0,3.272,1.468,3.272,3.274C23.275,22.805,21.807,24.274,20.003,24.274z"/>
<path opacity="0.84" fill="#010101" d="M26.95,64.917c0.039-0.299,0.066-0.599,0.066-0.916c0-0.318-0.027-0.618-0.066-0.917
	l1.977-1.544c0.176-0.14,0.223-0.393,0.111-0.598l-1.871-3.237c-0.111-0.206-0.365-0.28-0.57-0.206l-2.33,0.936
	c-0.484-0.374-1.01-0.683-1.58-0.916l-0.355-2.479c-0.027-0.224-0.225-0.393-0.459-0.393h-3.741c-0.234,0-0.43,0.169-0.458,0.393
	l-0.355,2.479c-0.57,0.233-1.094,0.552-1.581,0.916l-2.329-0.936c-0.215-0.084-0.458,0-0.571,0.206l-1.871,3.237
	c-0.122,0.205-0.065,0.458,0.112,0.598l1.974,1.544c-0.038,0.299-0.065,0.608-0.065,0.917s0.028,0.617,0.065,0.916l-1.974,1.543
	c-0.178,0.141-0.224,0.395-0.112,0.6l1.871,3.236c0.112,0.205,0.365,0.279,0.571,0.205l2.329-0.934
	c0.486,0.373,1.01,0.682,1.581,0.916l0.355,2.479c0.028,0.225,0.225,0.393,0.458,0.393h3.741c0.234,0,0.432-0.168,0.459-0.393
	l0.355-2.479c0.57-0.234,1.096-0.553,1.58-0.916l2.33,0.934c0.213,0.086,0.459,0,0.57-0.205l1.871-3.236
	c0.111-0.205,0.064-0.459-0.111-0.6L26.95,64.917z M20.002,67.274c-1.806,0-3.274-1.469-3.274-3.273
	c0-1.807,1.468-3.274,3.274-3.274c1.804,0,3.272,1.468,3.272,3.274C23.274,65.806,21.806,67.274,20.002,67.274z"/>
</svg>
