<?xml version="1.0" encoding="utf-8"?>
<!-- Generator: Adobe Illustrator 16.0.0, SVG Export Plug-In . SVG Version: 6.00 Build 0)  -->
<!DOCTYPE svg PUBLIC "-//W3C//DTD SVG 1.1//EN" "http://www.w3.org/Graphics/SVG/1.1/DTD/svg11.dtd">
<svg version="1.1" id="Layer_1" xmlns="http://www.w3.org/2000/svg" xmlns:xlink="http://www.w3.org/1999/xlink" x="0px" y="0px"
	 width="500px" height="500px" viewBox="0 0 500 500" enable-background="new 0 0 500 500" xml:space="preserve">
<path fill="#669BD2" d="M277.605,251.338c0,25.314-2.752,40.733-22.439,41.28l-17.887,0.141v-82.702h17.887
	C274.854,210.057,277.605,226.022,277.605,251.338z"/>
<path fill="#669BD2" d="M217.943,169.835v160.059h160.059V169.835H217.943z M255.166,299.499h-26.145v-96.321h26.145
	c26.709,0,30.694,21.47,30.694,48.16S281.875,299.499,255.166,299.499z M336.087,300.186c-26.974,0-30.272-22.015-30.272-48.848
	c0-26.832,3.299-48.849,30.272-48.849c26.973,0,30.677,22.017,30.677,48.849C366.764,278.171,363.06,300.186,336.087,300.186z
	 M336.087,209.37c-20.095,0-22.018,16.511-22.018,41.968c0,25.456,1.923,41.969,22.018,41.969c20.075,0,22.422-16.513,22.422-41.969
	C358.509,225.881,356.162,209.37,336.087,209.37z"/>
<g>
	<path fill="#669BD2" d="M79.865,203.178v13.619h19.123v82.703h13.902v-82.703h19.123v-13.619H79.865z"/>
	<path fill="#669BD2" d="M174.123,202.489c-27.803,0-31.102,22.017-31.102,48.849c0,26.833,3.299,48.848,31.102,48.848
		c27.802,0,31.507-22.015,31.507-48.848C205.629,224.506,201.925,202.489,174.123,202.489z M174.123,286.567
		c-15.683,0-17.2-13.761-17.2-35.229c0-21.328,1.517-35.229,17.2-35.229c15.824,0,17.623,13.901,17.623,35.229
		C191.746,272.807,189.946,286.567,174.123,286.567z"/>
</g>
<circle fill="#669BD2" cx="408.636" cy="318.666" r="11.229"/>
<rect opacity="0.1" fill="none" stroke="#FFFFFF" stroke-miterlimit="10" width="500" height="500"/>
</svg>
